<svg width="40.000000" height="40.000000" viewBox="0 0 40 40" fill="none" xmlns="http://www.w3.org/2000/svg" xmlns:xlink="http://www.w3.org/1999/xlink">
	<desc>
			Created with Pixso.
	</desc>
	<defs/>
	<rect id="Rectangle 19" rx="20.000000" width="40.000000" height="40.000000" fill="#0F8DA6" fill-opacity="1.000000"/>
	<path id="Vector" d="M24.73 20.66L20.55 20.66L20.55 24.83C20.55 25.05 20.46 25.26 20.31 25.42C20.15 25.57 19.94 25.66 19.71 25.66C19.49 25.66 19.28 25.57 19.12 25.42C18.97 25.26 18.88 25.05 18.88 24.83L18.88 20.66L14.7 20.66C14.48 20.66 14.27 20.57 14.11 20.42C13.95 20.26 13.86 20.05 13.86 19.83C13.86 19.61 13.95 19.4 14.11 19.24C14.27 19.08 14.48 19 14.7 19L18.88 19L18.88 14.83C18.88 14.61 18.97 14.4 19.12 14.24C19.28 14.08 19.49 14 19.71 14C19.94 14 20.15 14.08 20.31 14.24C20.46 14.4 20.55 14.61 20.55 14.83L20.55 19L24.73 19C24.95 19 25.16 19.08 25.32 19.24C25.48 19.4 25.57 19.61 25.57 19.83C25.57 20.05 25.48 20.26 25.32 20.42C25.16 20.57 24.95 20.66 24.73 20.66Z" fill="#FFFFFF" fill-opacity="1.000000" fill-rule="nonzero"/>
</svg>
