<svg width="40.000000" height="40.000000" viewBox="0 0 40 40" fill="none" xmlns="http://www.w3.org/2000/svg" xmlns:xlink="http://www.w3.org/1999/xlink">
	<desc>
			Created with Pixso.
	</desc>
	<defs/>
	<rect id="Rectangle 19" rx="20.000000" width="40.000000" height="40.000000" fill="#0F8DA6" fill-opacity="1.000000"/>
	<path id="Vector" d="M24.83 20.66C22.53 20.66 20.66 22.53 20.66 24.83C20.66 25.05 20.57 25.26 20.42 25.42C20.26 25.57 20.05 25.66 19.83 25.66C19.61 25.66 19.4 25.57 19.24 25.42C19.08 25.26 19 25.05 19 24.83C19 22.53 17.13 20.66 14.83 20.66C14.61 20.66 14.4 20.57 14.24 20.42C14.08 20.26 14 20.05 14 19.83C14 19.61 14.08 19.4 14.24 19.24C14.4 19.08 14.61 19 14.83 19C17.13 19 19 17.13 19 14.83C19 14.61 19.08 14.4 19.24 14.24C19.4 14.08 19.61 14 19.83 14C20.05 14 20.26 14.08 20.42 14.24C20.57 14.4 20.66 14.61 20.66 14.83C20.66 17.13 22.53 19 24.83 19C25.05 19 25.26 19.08 25.42 19.24C25.57 19.4 25.66 19.61 25.66 19.83C25.66 20.05 25.57 20.26 25.42 20.42C25.26 20.57 25.05 20.66 24.83 20.66Z" fill="#FFFFFF" fill-opacity="1.000000" fill-rule="nonzero"/>
</svg>
