<svg width="25" height="25" viewBox="0 0 25 25" fill="none" xmlns="http://www.w3.org/2000/svg">
<path d="M13.9906 6.96102C14.2921 6.65948 14.7804 6.65948 15.0816 6.96102C15.3832 7.26225 15.3832 7.75082 15.0816 8.05205L10.6338 12.4998L15.0819 16.9476C15.3835 17.2489 15.3835 17.7374 15.0819 18.0387C14.9313 18.1893 14.7338 18.2646 14.5363 18.2646C14.3387 18.2646 14.1415 18.1893 13.9906 18.0387L8.99707 13.0452C8.85232 12.9005 8.77114 12.7045 8.77114 12.4995C8.77114 12.2946 8.85262 12.0986 8.99707 11.9539L13.9906 6.96102Z" fill="#0F8DA6"/>
<path d="M12.5 0C19.3926 0 25 5.60734 25 12.5002C25 19.3927 19.3926 25 12.5 25C5.60741 25 0 19.3927 0 12.5002C0 5.60734 5.60741 0 12.5 0ZM12.5 23.4568C18.5417 23.4568 23.4568 18.5417 23.4568 12.5002C23.4568 6.45856 18.5417 1.54319 12.5 1.54319C6.45834 1.54319 1.54321 6.45825 1.54321 12.5002C1.54321 18.5421 6.45834 23.4568 12.5 23.4568Z" fill="#0F8DA6"/>
</svg>
