<svg width="25" height="25" viewBox="0 0 25 25" fill="none" xmlns="http://www.w3.org/2000/svg">
<path d="M11.0094 6.96102C10.7079 6.65948 10.2196 6.65948 9.91836 6.96102C9.61682 7.26225 9.61682 7.75082 9.91836 8.05205L14.3662 12.4998L9.91805 16.9476C9.61651 17.2489 9.61651 17.7374 9.91805 18.0387C10.0687 18.1893 10.2662 18.2646 10.4637 18.2646C10.6613 18.2646 10.8585 18.1893 11.0094 18.0387L16.0029 13.0452C16.1477 12.9005 16.2289 12.7045 16.2289 12.4995C16.2289 12.2946 16.1474 12.0986 16.0029 11.9539L11.0094 6.96102Z" fill="#0F8DA6"/>
<path d="M12.5 0C5.60741 0 0 5.60734 0 12.5002C0 19.3927 5.60741 25 12.5 25C19.3926 25 25 19.3927 25 12.5002C25 5.60734 19.3926 0 12.5 0ZM12.5 23.4568C6.45833 23.4568 1.54321 18.5417 1.54321 12.5002C1.54321 6.45856 6.45833 1.54319 12.5 1.54319C18.5417 1.54319 23.4568 6.45825 23.4568 12.5002C23.4568 18.5421 18.5417 23.4568 12.5 23.4568Z" fill="#0F8DA6"/>
</svg>
