<svg width="20" height="20" viewBox="0 0 20 20" fill="none" xmlns="http://www.w3.org/2000/svg">
<rect width="20" height="20" rx="10" fill="white"/>
<path d="M7.62516 12.1252L5.43766 9.93766C5.38046 9.87976 5.31233 9.83379 5.23723 9.80241C5.16213 9.77104 5.08155 9.75488 5.00016 9.75488C4.91877 9.75488 4.83819 9.77104 4.76309 9.80241C4.68798 9.83379 4.61986 9.87976 4.56266 9.93766C4.50476 9.99486 4.45879 10.063 4.42741 10.1381C4.39604 10.2132 4.37988 10.2938 4.37988 10.3752C4.37988 10.4565 4.39604 10.5371 4.42741 10.6122C4.45879 10.6873 4.50476 10.7555 4.56266 10.8127L7.18141 13.4314C7.42516 13.6752 7.81891 13.6752 8.06266 13.4314L14.6877 6.81266C14.7456 6.75546 14.7915 6.68733 14.8229 6.61223C14.8543 6.53713 14.8704 6.45655 14.8704 6.37516C14.8704 6.29377 14.8543 6.21319 14.8229 6.13809C14.7915 6.06298 14.7456 5.99486 14.6877 5.93766C14.6305 5.87976 14.5623 5.83379 14.4872 5.80241C14.4121 5.77104 14.3315 5.75488 14.2502 5.75488C14.1688 5.75488 14.0882 5.77104 14.0131 5.80241C13.938 5.83379 13.8699 5.87976 13.8127 5.93766L7.62516 12.1252Z" fill="#00414D"/>
</svg>
