<svg width="274" height="64" viewBox="0 0 274 64" fill="none" xmlns="http://www.w3.org/2000/svg">
<path d="M23.608 0.599998V23H17.912V10.936L12.472 19.928H11.896L6.488 10.968V23H0.76V0.599998H6.488L12.184 10.168L17.912 0.599998H23.608ZM34.0783 23.448C31.7103 23.448 29.6943 22.6373 28.0303 21.016C26.3663 19.3733 25.5343 17.368 25.5343 15C25.5343 12.632 26.3663 10.6373 28.0303 9.016C29.6943 7.37333 31.7103 6.552 34.0783 6.552C36.4676 6.552 38.4836 7.37333 40.1263 9.016C41.7903 10.6373 42.6223 12.632 42.6223 15C42.6223 17.368 41.7903 19.3733 40.1263 21.016C38.4836 22.6373 36.4676 23.448 34.0783 23.448ZM34.0783 18.328C35.0169 18.328 35.7849 18.0187 36.3823 17.4C37.0009 16.7813 37.3103 15.9813 37.3103 15C37.3103 14.0187 37.0009 13.2187 36.3823 12.6C35.7849 11.9813 35.0169 11.672 34.0783 11.672C33.1609 11.672 32.3929 11.9813 31.7743 12.6C31.1769 13.2187 30.8783 14.0187 30.8783 15C30.8783 15.9813 31.1769 16.7813 31.7743 17.4C32.3929 18.0187 33.1609 18.328 34.0783 18.328ZM54.3345 7H59.6465V23H54.3345V17.496H49.6305V23H44.3185V7H49.6305V12.504H54.3345V7ZM75.3328 7V12.088H70.7568V23H65.4448V12.088H60.8048V7H75.3328ZM87.272 7H92.584V23H87.272V21.528C86.184 22.808 84.6693 23.448 82.728 23.448C80.5947 23.448 78.8027 22.648 77.352 21.048C75.9227 19.4267 75.208 17.4107 75.208 15C75.208 12.5893 75.9227 10.584 77.352 8.984C78.8027 7.36267 80.5947 6.552 82.728 6.552C84.6693 6.552 86.184 7.192 87.272 8.472V7ZM81.48 17.528C82.0987 18.168 82.9093 18.488 83.912 18.488C84.9147 18.488 85.7253 18.168 86.344 17.528C86.9627 16.888 87.272 16.0453 87.272 15C87.272 13.9547 86.9627 13.112 86.344 12.472C85.7253 11.832 84.9147 11.512 83.912 11.512C82.9093 11.512 82.0987 11.832 81.48 12.472C80.8613 13.112 80.552 13.9547 80.552 15C80.552 16.0453 80.8613 16.888 81.48 17.528ZM118.256 23H112.4L108.592 16.44V23H103.312V16.44L99.5035 23H93.6475L98.6395 15L93.9675 7H99.8235L103.312 13.464V7H108.592V13.464L112.08 7H117.936L113.264 15L118.256 23ZM135.947 7H141.259V23H135.947V17.496H131.243V23H125.931V7H131.243V12.504H135.947V7ZM154.962 7H160.274V23H154.962V21.528C153.874 22.808 152.359 23.448 150.418 23.448C148.285 23.448 146.493 22.648 145.042 21.048C143.613 19.4267 142.898 17.4107 142.898 15C142.898 12.5893 143.613 10.584 145.042 8.984C146.493 7.36267 148.285 6.552 150.418 6.552C152.359 6.552 153.874 7.192 154.962 8.472V7ZM149.17 17.528C149.789 18.168 150.599 18.488 151.602 18.488C152.605 18.488 153.415 18.168 154.034 17.528C154.653 16.888 154.962 16.0453 154.962 15C154.962 13.9547 154.653 13.112 154.034 12.472C153.415 11.832 152.605 11.512 151.602 11.512C150.599 11.512 149.789 11.832 149.17 12.472C148.551 13.112 148.242 13.9547 148.242 15C148.242 16.0453 148.551 16.888 149.17 17.528ZM175.962 7V12.088H171.386V23H166.074V12.088H161.434V7H175.962ZM190.088 7V23H184.84V18.456H184.104L181.064 23H175.016L178.76 17.656C177.843 17.144 177.128 16.4613 176.616 15.608C176.125 14.7333 175.88 13.7947 175.88 12.792C175.88 11.128 176.424 9.752 177.512 8.664C178.621 7.55467 180.115 7 181.992 7H190.088ZM182.568 11.48C182.12 11.48 181.757 11.608 181.48 11.864C181.203 12.0987 181.064 12.44 181.064 12.888C181.064 13.3147 181.203 13.6453 181.48 13.88C181.757 14.1147 182.12 14.232 182.568 14.232H184.84V11.48H182.568ZM215.759 23H209.903L206.095 16.44V23H200.815V16.44L197.007 23H191.151L196.143 15L191.471 7H197.327L200.815 13.464V7H206.095V13.464L209.583 7H215.439L210.767 15L215.759 23ZM226.841 7H232.153V23H226.841V17.496H222.137V23H216.825V7H222.137V12.504H226.841V7ZM242.527 11.512C244.447 11.512 245.972 12.0347 247.103 13.08C248.234 14.104 248.799 15.4907 248.799 17.24C248.799 19.0107 248.234 20.4187 247.103 21.464C245.994 22.488 244.468 23 242.527 23H234.591V7H239.903V11.512H242.527ZM250.111 7H255.423V23H250.111V7ZM242.207 18.552C242.634 18.552 242.975 18.4347 243.231 18.2C243.487 17.9653 243.615 17.6453 243.615 17.24C243.615 16.856 243.487 16.5467 243.231 16.312C242.975 16.0773 242.634 15.96 242.207 15.96H239.903V18.552H242.207ZM273.889 23H267.873L265.089 19.064L262.305 23H256.321L262.113 14.84L256.545 7H262.529L265.089 10.616L267.649 7H273.665L268.097 14.84L273.889 23ZM15.864 47V63H10.552V52.024H5.848V63H0.536V47H15.864ZM26.047 63.448C23.679 63.448 21.663 62.6373 19.999 61.016C18.335 59.3733 17.503 57.368 17.503 55C17.503 52.632 18.335 50.6373 19.999 49.016C21.663 47.3733 23.679 46.552 26.047 46.552C28.4363 46.552 30.4523 47.3733 32.095 49.016C33.759 50.6373 34.591 52.632 34.591 55C34.591 57.368 33.759 59.3733 32.095 61.016C30.4523 62.6373 28.4363 63.448 26.047 63.448ZM26.047 58.328C26.9857 58.328 27.7537 58.0187 28.351 57.4C28.9697 56.7813 29.279 55.9813 29.279 55C29.279 54.0187 28.9697 53.2187 28.351 52.6C27.7537 51.9813 26.9857 51.672 26.047 51.672C25.1297 51.672 24.3617 51.9813 23.743 52.6C23.1457 53.2187 22.847 54.0187 22.847 55C22.847 55.9813 23.1457 56.7813 23.743 57.4C24.3617 58.0187 25.1297 58.328 26.047 58.328ZM49.0353 47V52.088H44.4593V63H39.1473V52.088H34.5073V47H49.0353ZM57.4545 63.448C55.0865 63.448 53.0705 62.6373 51.4065 61.016C49.7425 59.3733 48.9105 57.368 48.9105 55C48.9105 52.632 49.7425 50.6373 51.4065 49.016C53.0705 47.3733 55.0865 46.552 57.4545 46.552C59.8438 46.552 61.8598 47.3733 63.5025 49.016C65.1665 50.6373 65.9985 52.632 65.9985 55C65.9985 57.368 65.1665 59.3733 63.5025 61.016C61.8598 62.6373 59.8438 63.448 57.4545 63.448ZM57.4545 58.328C58.3932 58.328 59.1612 58.0187 59.7585 57.4C60.3772 56.7813 60.6865 55.9813 60.6865 55C60.6865 54.0187 60.3772 53.2187 59.7585 52.6C59.1612 51.9813 58.3932 51.672 57.4545 51.672C56.5372 51.672 55.7692 51.9813 55.1505 52.6C54.5532 53.2187 54.2545 54.0187 54.2545 55C54.2545 55.9813 54.5532 56.7813 55.1505 57.4C55.7692 58.0187 56.5372 58.328 57.4545 58.328ZM82.4505 47V63H77.1385V52.088H73.9385V56.376C73.9385 58.8933 73.3092 60.696 72.0505 61.784C70.8132 62.872 68.9038 63.2773 66.3225 63V58.072C67.0905 58.2853 67.6665 58.1893 68.0505 57.784C68.4345 57.3573 68.6265 56.632 68.6265 55.608V47H82.4505ZM100.675 63H94.7233L90.1793 56.184V63H84.8673V47H90.1793V53.688L94.3073 47H100.451L95.0753 55L100.675 63ZM108.316 63.448C105.948 63.448 103.932 62.6373 102.268 61.016C100.604 59.3733 99.7718 57.368 99.7718 55C99.7718 52.632 100.604 50.6373 102.268 49.016C103.932 47.3733 105.948 46.552 108.316 46.552C110.705 46.552 112.721 47.3733 114.364 49.016C116.028 50.6373 116.86 52.632 116.86 55C116.86 57.368 116.028 59.3733 114.364 61.016C112.721 62.6373 110.705 63.448 108.316 63.448ZM108.316 58.328C109.254 58.328 110.022 58.0187 110.62 57.4C111.238 56.7813 111.548 55.9813 111.548 55C111.548 54.0187 111.238 53.2187 110.62 52.6C110.022 51.9813 109.254 51.672 108.316 51.672C107.398 51.672 106.63 51.9813 106.012 52.6C105.414 53.2187 105.116 54.0187 105.116 55C105.116 55.9813 105.414 56.7813 106.012 57.4C106.63 58.0187 107.398 58.328 108.316 58.328ZM130.844 54.84C132.337 55.544 133.084 56.728 133.084 58.392C133.084 59.8 132.604 60.92 131.644 61.752C130.684 62.584 129.297 63 127.484 63H118.556V47H126.94C128.732 47 130.108 47.416 131.068 48.248C132.028 49.08 132.508 50.2 132.508 51.608C132.508 53.016 131.953 54.0933 130.844 54.84ZM126.14 50.968H123.644V53.08H126.14C126.993 53.08 127.42 52.7387 127.42 52.056C127.42 51.3307 126.993 50.968 126.14 50.968ZM126.556 58.968C127.388 58.968 127.804 58.5947 127.804 57.848C127.804 57.144 127.388 56.792 126.556 56.792H123.644V58.968H126.556Z" fill="black"/>
</svg>
