<svg width="40" height="41" viewBox="0 0 40 41" fill="none" xmlns="http://www.w3.org/2000/svg">
    <path
        d="M17.9441 11.4158C17.4688 10.9213 16.6991 10.9213 16.2242 11.4158C15.7488 11.9098 15.7488 12.7111 16.2242 13.2051L23.2358 20.4995L16.2237 27.7938C15.7483 28.2879 15.7483 29.0891 16.2237 29.5831C16.4611 29.8302 16.7725 29.9537 17.0839 29.9537C17.3953 29.9537 17.7062 29.8302 17.9441 29.5831L25.816 21.3939C26.0442 21.1565 26.1722 20.8351 26.1722 20.499C26.1722 20.1629 26.0437 19.8415 25.816 19.6041L17.9441 11.4158Z"
        fill="#0F8DA6" />
    <path
        d="M20.2941 0C9.42847 0 0.588867 9.19603 0.588867 20.5003C0.588867 31.804 9.42847 41 20.2941 41C31.1597 41 39.9993 31.804 39.9993 20.5003C39.9993 9.19603 31.1597 0 20.2941 0ZM20.2941 38.4692C10.7699 38.4692 3.02161 30.4085 3.02161 20.5003C3.02161 10.592 10.7699 2.53083 20.2941 2.53083C29.8182 2.53083 37.5665 10.5915 37.5665 20.5003C37.5665 30.409 29.8182 38.4692 20.2941 38.4692Z"
        fill="#0F8DA6" />
</svg>