<svg width="40" height="41" viewBox="0 0 40 41" fill="none" xmlns="http://www.w3.org/2000/svg">
    <path
        d="M22.0539 11.4158C22.5293 10.9213 23.299 10.9213 23.7739 11.4158C24.2492 11.9098 24.2492 12.7111 23.7739 13.2051L16.7622 20.4995L23.7743 27.7938C24.2497 28.2879 24.2497 29.0891 23.7743 29.5831C23.5369 29.8302 23.2255 29.9537 22.9141 29.9537C22.6027 29.9537 22.2918 29.8302 22.0539 29.5831L14.182 21.3939C13.9539 21.1565 13.8259 20.8351 13.8259 20.499C13.8259 20.1629 13.9543 19.8415 14.182 19.6041L22.0539 11.4158Z"
        fill="#0F8DA6" />
    <path
        d="M19.704 0C30.5696 0 39.4092 9.19603 39.4092 20.5003C39.4092 31.804 30.5696 41 19.704 41C8.83839 41 -0.00121689 31.804 -0.00121689 20.5003C-0.00121689 9.19603 8.83839 0 19.704 0ZM19.704 38.4692C29.2282 38.4692 36.9764 30.4085 36.9764 20.5003C36.9764 10.592 29.2282 2.53083 19.704 2.53083C10.1798 2.53083 2.43152 10.5915 2.43152 20.5003C2.43152 30.409 10.1798 38.4692 19.704 38.4692Z"
        fill="#0F8DA6" />
</svg>