<svg width="120" height="170" viewBox="0 0 120 170" fill="none" xmlns="http://www.w3.org/2000/svg">
    <path fill-rule="evenodd" clip-rule="evenodd"
        d="M77.0553 18.8903L71.2411 0L65.4268 18.8903L54.1782 24.265L65.4768 29.6623L71.2411 46.19L77.0054 29.6623L88.3039 24.265L77.0553 18.8903ZM69.5563 22.4718L71.2411 16.9993L72.9259 22.4743L76.6754 24.265L72.9759 26.0332L71.2411 31.004L69.5063 26.0332L65.8068 24.265L69.5563 22.4718Z"
        fill="#00414D" />
    <path
        d="M32.4956 24.8016L34.9953 14.7695L37.495 24.8016L44.9941 27.3096L37.495 29.8176L34.9953 39.8496L32.4956 29.8176L24.9966 27.3096L32.4956 24.8016Z"
        fill="#00414D" />
    <path fill-rule="evenodd" clip-rule="evenodd"
        d="M17.4978 84.3669V84.9839C17.4978 86.3142 16.9711 87.59 16.0335 88.5307C15.096 89.4714 13.8243 89.9999 12.4984 89.9999H4.99937C3.67346 89.9999 2.40185 89.4714 1.46428 88.5307C0.526718 87.59 0 86.3142 0 84.9839V57.4083C0 56.0779 0.526718 54.8021 1.46428 53.8614C2.40185 52.9207 3.67346 52.3923 4.99937 52.3923H12.4984C13.6243 52.3918 14.7175 52.7726 15.6007 53.4732C16.484 54.1737 17.1058 55.1528 17.3653 56.2521C20.6749 55.0558 24.5419 53.6312 25.7243 53.0895C26.7291 52.6305 27.889 52.475 28.8539 52.4173C29.8496 52.3685 30.8476 52.3861 31.841 52.47C32.9532 52.5608 34.0609 52.7014 35.1606 52.8914L35.2181 52.9014L35.2356 52.9039H35.2431L35.2881 52.9139L52.011 56.6759L52.1134 56.7111L52.1409 56.7211L52.2559 56.7562L52.7284 56.8916C53.1408 57.007 53.7332 57.16 54.4407 57.3155C55.878 57.629 57.6902 57.9224 59.3775 57.9224C60.9373 57.9224 62.5521 58.5068 63.412 60.0919C64.1519 61.4512 63.9795 62.946 63.7045 63.9793C63.357 65.2684 62.6421 66.6227 61.7347 67.7739C62.9596 67.3099 64.3019 66.7607 65.7417 66.1688L66.0492 66.0434C70.1062 64.3705 74.9156 62.3892 79.16 61.687C84.0094 60.8819 87.5365 62.6475 89.1363 65.78C90.5611 68.5689 90.2312 72.2281 88.0864 74.4327C87.549 74.9869 86.7291 75.5688 85.9067 76.103C85.0268 76.6773 83.9445 77.3219 82.7421 78.0091C79.9798 79.5606 77.1836 81.0507 74.3557 82.4784C68.4264 85.4955 62.2122 88.4299 60.2374 89.1547C57.9477 89.9949 55.488 90.0751 53.1258 89.9522C51.6993 89.8633 50.2749 89.742 48.8539 89.5886C47.8135 89.4805 46.7718 89.3844 45.7293 89.3002C40.9099 88.934 37.2103 87.7527 33.8058 86.6667L33.3908 86.5338C29.8712 85.4152 26.5967 84.4196 22.2597 84.244C21.2698 84.2039 19.2901 84.2816 17.4978 84.3669ZM27.7965 57.6516C27.959 57.5763 28.3839 57.4685 29.1413 57.4233C29.8512 57.3807 30.6611 57.4083 31.4535 57.4685C32.4015 57.5464 33.3457 57.6661 34.2832 57.8271H34.2907L50.7061 61.5214L50.8186 61.5565C50.9569 61.6 51.1486 61.6552 51.3935 61.7221C51.8785 61.8575 52.5634 62.0356 53.3758 62.2136C54.8381 62.5347 56.8004 62.8707 58.7951 62.9284C58.6174 63.4109 58.3789 63.8686 58.0852 64.2903C57.6852 64.8721 57.2478 65.3211 56.8878 65.5794C55.848 66.3268 55.0081 66.6378 54.4981 66.7707C54.3246 66.8188 54.1473 66.8524 53.9682 66.871H53.9132L40.5099 66.7105L40.035 71.6864L40.1674 71.7115L40.5499 71.7792L41.9397 72.025C43.1071 72.2306 44.7094 72.5065 46.4542 72.7924C49.8887 73.3542 54.0282 73.9762 56.3779 74.1192C58.0027 74.2195 59.8925 73.7179 61.6497 73.1285C63.482 72.514 65.5543 71.6638 67.639 70.8061C71.931 69.0404 76.3029 67.2422 79.9749 66.6328C83.1495 66.1061 84.2819 67.2698 84.6869 68.0648C85.2693 69.206 84.9543 70.4725 84.5069 70.929C84.3994 71.0418 84.0069 71.3604 83.187 71.8946C82.4221 72.3886 81.4348 72.983 80.2749 73.6426C77.5809 75.1558 74.8539 76.6091 72.0959 78.0016C66.1167 81.0438 60.1674 83.8352 58.5176 84.4421C57.1828 84.9337 55.5305 85.0516 53.3833 84.9412C52.1183 84.8666 50.8556 84.7587 49.5963 84.6177C48.4346 84.495 47.2713 84.3879 46.1067 84.2967C41.8772 83.9757 38.6626 82.9499 35.2156 81.8514L34.9031 81.751C31.3336 80.6149 27.514 79.4336 22.4622 79.2305C21.3248 79.1853 19.3001 79.2556 17.4978 79.3408V61.5315C21.0124 60.2699 26.2142 58.3764 27.7965 57.6516ZM12.4984 57.4058H4.99937V84.9814H12.4984V57.4058Z"
        fill="#00414D" />
    <path
        d="M6.608 112.8H9.456V124H6.608V120.288C6 120.491 5.36533 120.592 4.704 120.592C3.49867 120.592 2.528 120.256 1.792 119.584C1.056 118.912 0.688 117.984 0.688 116.8V112.8H3.536V116.496C3.536 116.923 3.664 117.253 3.92 117.488C4.176 117.723 4.50667 117.84 4.912 117.84C5.49867 117.84 6.064 117.744 6.608 117.552V112.8ZM17.4154 124V118.368L13.4634 124H11.2394V112.8H14.1034V118.432L18.0554 112.8H20.2634V124H17.4154ZM27.4443 124.24C25.7589 124.24 24.3616 123.685 23.2523 122.576C22.1536 121.456 21.6043 120.064 21.6043 118.4C21.6043 116.736 22.1536 115.349 23.2523 114.24C24.3616 113.12 25.7589 112.56 27.4443 112.56C28.4576 112.56 29.3963 112.8 30.2603 113.28C31.1243 113.76 31.8016 114.405 32.2923 115.216L29.8123 116.64C29.5989 116.245 29.2789 115.936 28.8523 115.712C28.4363 115.477 27.9669 115.36 27.4443 115.36C26.5483 115.36 25.8229 115.643 25.2682 116.208C24.7243 116.763 24.4523 117.493 24.4523 118.4C24.4523 119.307 24.7243 120.043 25.2682 120.608C25.8229 121.163 26.5483 121.44 27.4443 121.44C27.9669 121.44 28.4363 121.328 28.8523 121.104C29.2789 120.869 29.5989 120.549 29.8123 120.144L32.2923 121.584C31.8016 122.405 31.1243 123.056 30.2603 123.536C29.4069 124.005 28.4683 124.24 27.4443 124.24ZM41.06 112.8V115.568H38.292V124H35.428V115.568H32.66V112.8H41.06ZM42.0988 124V112.8H44.9628V116.16H46.4508C47.5814 116.16 48.5308 116.533 49.2987 117.28C50.0668 118.016 50.4508 118.949 50.4508 120.08C50.4508 121.221 50.0668 122.16 49.2987 122.896C48.5308 123.632 47.5814 124 46.4508 124H42.0988ZM51.3788 124V112.8H54.2268V124H51.3788ZM44.9628 121.28H46.4508C46.7708 121.28 47.0374 121.168 47.2508 120.944C47.4748 120.72 47.5868 120.432 47.5868 120.08C47.5868 119.728 47.4748 119.445 47.2508 119.232C47.0374 119.008 46.7708 118.896 46.4508 118.896H44.9628V121.28ZM57.925 111.936V109.696H63.093V111.936H57.925ZM62.181 124V118.368L58.229 124H56.005V112.8H58.869V118.432L62.821 112.8H65.029V124H62.181ZM76.6029 124V118.368L72.6509 124H70.4269V112.8H73.2909V118.432L77.2429 112.8H79.4509V124H76.6029ZM5.504 136.928C6.64533 136.928 7.55733 137.248 8.24 137.888C8.92267 138.528 9.264 139.381 9.264 140.448C9.264 141.515 8.92267 142.373 8.24 143.024C7.55733 143.675 6.64533 144 5.504 144H0.88V132.8H8.304V135.568H3.744V136.928H5.504ZM5.392 141.376C5.70133 141.376 5.94667 141.301 6.128 141.152C6.32 140.992 6.416 140.757 6.416 140.448C6.416 140.139 6.32 139.904 6.128 139.744C5.94667 139.584 5.70133 139.504 5.392 139.504H3.744V141.376H5.392ZM13.2128 141.312H17.5487V144H10.3488V132.8H17.4688V135.472H13.2128V137.024H17.0688V139.664H13.2128V141.312ZM25.2153 138.224C26.2179 138.789 26.7193 139.664 26.7193 140.848C26.7193 141.872 26.3353 142.693 25.5673 143.312C24.7993 143.931 23.7859 144.24 22.5273 144.24C20.3513 144.24 18.9059 143.365 18.1913 141.616L20.6393 140.208C20.9593 141.093 21.5886 141.536 22.5273 141.536C23.4126 141.536 23.8553 141.205 23.8553 140.544C23.8553 139.968 23.4979 139.648 22.7833 139.584L21.0873 139.568V137.088H22.1913C23.0553 137.088 23.4873 136.779 23.4873 136.16C23.4873 135.541 23.1033 135.232 22.3353 135.232C21.5673 135.232 21.0339 135.611 20.7353 136.368L18.3353 134.976C18.6766 134.219 19.1939 133.627 19.8873 133.2C20.5913 132.773 21.4233 132.56 22.3833 132.56C23.5566 132.56 24.5113 132.869 25.2473 133.488C25.9833 134.096 26.3513 134.907 26.3513 135.92C26.3513 136.901 25.9726 137.669 25.2153 138.224ZM37.4644 142.56C36.3337 143.68 34.947 144.24 33.3044 144.24C31.6617 144.24 30.2697 143.68 29.1284 142.56C27.9977 141.429 27.4324 140.043 27.4324 138.4C27.4324 136.757 27.9977 135.376 29.1284 134.256C30.2697 133.125 31.6617 132.56 33.3044 132.56C34.947 132.56 36.3337 133.125 37.4644 134.256C38.6057 135.376 39.1764 136.757 39.1764 138.4C39.1764 140.043 38.6057 141.429 37.4644 142.56ZM31.1444 140.592C31.7204 141.157 32.4404 141.44 33.3044 141.44C34.1684 141.44 34.8884 141.157 35.4644 140.592C36.0404 140.016 36.3284 139.285 36.3284 138.4C36.3284 137.515 36.0404 136.789 35.4644 136.224C34.8884 135.648 34.1684 135.36 33.3044 135.36C32.4404 135.36 31.7204 135.648 31.1444 136.224C30.5684 136.789 30.2804 137.515 30.2804 138.4C30.2804 139.285 30.5684 140.016 31.1444 140.592ZM49.145 132.8V144H46.281V135.568H43.369V144H40.505V132.8H49.145ZM57.7433 144L57.2633 142.384H53.5353L53.0553 144H49.9512L53.6473 132.8H57.1353L60.8313 144H57.7433ZM54.2713 139.92H56.5273L55.3913 136.112L54.2713 139.92ZM66.6474 144.24C64.962 144.24 63.5647 143.685 62.4554 142.576C61.3567 141.456 60.8074 140.064 60.8074 138.4C60.8074 136.736 61.3567 135.349 62.4554 134.24C63.5647 133.12 64.962 132.56 66.6474 132.56C67.6607 132.56 68.5994 132.8 69.4634 133.28C70.3274 133.76 71.0047 134.405 71.4954 135.216L69.0154 136.64C68.802 136.245 68.482 135.936 68.0554 135.712C67.6394 135.477 67.17 135.36 66.6474 135.36C65.7514 135.36 65.026 135.643 64.4714 136.208C63.9274 136.763 63.6554 137.493 63.6554 138.4C63.6554 139.307 63.9274 140.043 64.4714 140.608C65.026 141.163 65.7514 141.44 66.6474 141.44C67.17 141.44 67.6394 141.328 68.0554 141.104C68.482 140.869 68.802 140.549 69.0154 140.144L71.4954 141.584C71.0047 142.405 70.3274 143.056 69.4634 143.536C68.61 144.005 67.6714 144.24 66.6474 144.24ZM78.5366 132.8H81.3846V144H78.5366V139.696H75.3846V144H72.5206V132.8H75.3846V136.944H78.5366V132.8ZM83.1613 144V132.8H86.0253V136.16H87.5133C88.6439 136.16 89.5933 136.533 90.3612 137.28C91.1293 138.016 91.5133 138.949 91.5133 140.08C91.5133 141.221 91.1293 142.16 90.3612 142.896C89.5933 143.632 88.6439 144 87.5133 144H83.1613ZM92.4413 144V132.8H95.2893V144H92.4413ZM86.0253 141.28H87.5133C87.8333 141.28 88.0999 141.168 88.3133 140.944C88.5373 140.72 88.6493 140.432 88.6493 140.08C88.6493 139.728 88.5373 139.445 88.3133 139.232C88.0999 139.008 87.8333 138.896 87.5133 138.896H86.0253V141.28ZM98.9875 131.936V129.696H104.156V131.936H98.9875ZM103.244 144V138.368L99.2915 144H97.0675V132.8H99.9315V138.432L103.884 132.8H106.092V144H103.244ZM12.304 152.8V164H9.456V157.968L6.736 162.464H6.448L3.744 157.984V164H0.88V152.8H3.744L6.592 157.584L9.456 152.8H12.304ZM23.6831 162.56C22.5525 163.68 21.1658 164.24 19.5231 164.24C17.8805 164.24 16.4885 163.68 15.3471 162.56C14.2165 161.429 13.6511 160.043 13.6511 158.4C13.6511 156.757 14.2165 155.376 15.3471 154.256C16.4885 153.125 17.8805 152.56 19.5231 152.56C21.1658 152.56 22.5525 153.125 23.6831 154.256C24.8245 155.376 25.3951 156.757 25.3951 158.4C25.3951 160.043 24.8245 161.429 23.6831 162.56ZM17.3631 160.592C17.9391 161.157 18.6591 161.44 19.5231 161.44C20.3871 161.44 21.1071 161.157 21.6831 160.592C22.2591 160.016 22.5471 159.285 22.5471 158.4C22.5471 157.515 22.2591 156.789 21.6831 156.224C21.1071 155.648 20.3871 155.36 19.5231 155.36C18.6591 155.36 17.9391 155.648 17.3631 156.224C16.7871 156.789 16.4991 157.515 16.4991 158.4C16.4991 159.285 16.7871 160.016 17.3631 160.592ZM32.7398 152.8H35.5878V164H32.7398V159.696H29.5878V164H26.7238V152.8H29.5878V156.944H32.7398V152.8ZM45.0444 152.8V155.568H42.2764V164H39.4124V155.568H36.6444V152.8H45.0444ZM52.1183 164L51.6383 162.384H47.9103L47.4303 164H44.3262L48.0223 152.8H51.5103L55.2063 164H52.1183ZM48.6463 159.92H50.9023L49.7663 156.112L48.6463 159.92ZM69.8766 164H66.7086L63.9886 159.12V164H61.1246V159.12L58.3886 164H55.2206L58.5966 158.336L55.3806 152.8H58.5486L61.1246 157.648V152.8H63.9886V157.648L66.5486 152.8H69.7166L66.5166 158.336L69.8766 164Z"
        fill="black" />
</svg>