<svg width="120" height="150" viewBox="0 0 120 150" fill="none" xmlns="http://www.w3.org/2000/svg">
    <path fill-rule="evenodd" clip-rule="evenodd"
        d="M44.9993 0C45.6623 0 46.2982 0.263393 46.7671 0.732236C47.2359 1.20108 47.4993 1.83696 47.4993 2.50001V2.67001C54.4943 3.40001 59.8318 6.40752 63.3068 10.235C65.6968 12.8675 67.2793 16.0051 67.7768 19.0651L68.0468 19.2726C70.8568 21.4501 72.9193 24.0901 72.4293 27.1176C71.9568 30.0426 69.3143 31.8226 66.8543 32.9101C66.2325 33.1854 65.5985 33.4323 64.9543 33.6501C64.9843 34.0951 64.9993 34.5451 64.9993 35.0001C64.9981 37.6826 64.4572 40.3375 63.4089 42.8067C62.3606 45.2759 60.8263 47.509 58.8973 49.3731C56.9683 51.2372 54.684 52.6942 52.1804 53.6574C49.6767 54.6205 47.0049 55.0702 44.3239 54.9796C41.6429 54.889 39.0076 54.26 36.5747 53.1301C34.1417 52.0001 31.961 50.3923 30.1622 48.4022C28.3634 46.4122 26.9833 44.0806 26.1041 41.5463C25.2249 39.0119 24.8645 36.3266 25.0443 33.6501C24.4001 33.4323 23.7661 33.1854 23.1443 32.9101C20.6843 31.8226 18.0418 30.0426 17.5693 27.1176C17.0793 24.0901 19.1418 21.4501 21.9518 19.2726L22.2693 19.0276C22.3333 18.6295 22.4134 18.2342 22.5093 17.8426C23.1685 15.2427 24.3707 12.8119 26.0368 10.71C29.3868 6.44002 34.8693 2.99001 42.4993 2.55001V2.50001C42.4993 1.83696 42.7627 1.20108 43.2315 0.732236C43.7004 0.263393 44.3363 0 44.9993 0ZM64.1493 26.1001C64.6608 26.2853 65.2188 26.2986 65.7385 26.138C66.2583 25.9773 66.7115 25.6516 67.0293 25.2101C67.5218 25.8976 67.5043 26.2626 67.4943 26.3201C67.4618 26.5201 67.0793 27.3451 64.8318 28.3401C62.2093 29.5001 58.2643 30.3401 53.7393 30.8151C53.6318 28.5694 52.6641 26.4513 51.0368 24.9C49.4095 23.3487 47.2475 22.4833 44.9993 22.4833C42.7511 22.4833 40.5891 23.3487 38.9618 24.9C37.3345 26.4513 36.3668 28.5694 36.2593 30.8151C31.7343 30.3401 27.7893 29.5001 25.1668 28.3401C22.9193 27.3451 22.5368 26.5201 22.5043 26.3201C22.4943 26.2626 22.4768 25.9001 22.9693 25.2101C23.3222 25.702 23.8417 26.0492 24.4312 26.1871C25.0208 26.325 25.6403 26.2443 26.1748 25.9599C26.7094 25.6756 27.1225 25.2069 27.3376 24.6409C27.5527 24.0749 27.5551 23.4502 27.3443 22.8826C27.0443 22.0726 26.9518 20.7301 27.3668 19.0251C27.858 17.1188 28.7456 15.3375 29.9718 13.7975L29.9993 13.7625V18.7501C29.9993 19.4131 30.2627 20.049 30.7315 20.5178C31.2004 20.9867 31.8363 21.2501 32.4993 21.2501C33.1623 21.2501 33.7982 20.9867 34.2671 20.5178C34.7359 20.049 34.9993 19.4131 34.9993 18.7501V9.61503C37.0543 8.52752 39.5418 7.76752 42.4993 7.55752V13.75C42.4993 14.4131 42.7627 15.049 43.2315 15.5178C43.7004 15.9867 44.3363 16.25 44.9993 16.25C45.6623 16.25 46.2982 15.9867 46.7671 15.5178C47.2359 15.049 47.4993 14.4131 47.4993 13.75V7.70252C50.4243 8.07003 52.9193 8.90753 54.9993 10.0275V18.7501C54.9993 19.4131 55.2627 20.049 55.7315 20.5178C56.2004 20.9867 56.8363 21.2501 57.4993 21.2501C58.1623 21.2501 58.7982 20.9867 59.2671 20.5178C59.7359 20.049 59.9993 19.4131 59.9993 18.7501V14.0475C62.7893 17.3651 63.3793 20.8751 62.6493 22.9001C62.4241 23.5233 62.4557 24.2105 62.7369 24.8106C63.0182 25.4106 63.5262 25.8744 64.1493 26.1001ZM38.6668 37.2876C35.7737 37.104 32.8948 36.7407 30.0468 36.2001C30.3467 39.9599 32.0521 43.4688 34.8231 46.0276C37.5942 48.5864 41.2275 50.0074 44.9993 50.0074C48.7711 50.0074 52.4044 48.5864 55.1755 46.0276C57.9465 43.4688 59.6519 39.9599 59.9518 36.2001C57.3018 36.7201 54.3668 37.0801 51.3318 37.2876C50.5147 38.1447 49.5322 38.827 48.4437 39.2933C47.3552 39.7595 46.1834 40 44.9993 40.0001C43.8152 40 42.6434 39.7595 41.5549 39.2933C40.4664 38.827 39.4839 38.1447 38.6668 37.2876ZM48.7493 31.2501C48.7493 32.2447 48.3542 33.1985 47.6509 33.9018C46.9477 34.605 45.9939 35.0001 44.9993 35.0001C44.0047 35.0001 43.0509 34.605 42.3477 33.9018C41.6444 33.1985 41.2493 32.2447 41.2493 31.2501C41.2493 30.2555 41.6444 29.3017 42.3477 28.5984C43.0509 27.8952 44.0047 27.5001 44.9993 27.5001C45.9939 27.5001 46.9477 27.8952 47.6509 28.5984C48.3542 29.3017 48.7493 30.2555 48.7493 31.2501Z"
        fill="#00414D" />
    <path
        d="M44.9995 82.5C46.3256 82.5 47.5974 81.9732 48.535 81.0356C49.4727 80.0979 49.9995 78.8261 49.9995 77.5C49.9995 76.1739 49.4727 74.9022 48.535 73.9645C47.5974 73.0268 46.3256 72.5 44.9995 72.5C43.6734 72.5 42.4017 73.0268 41.464 73.9645C40.5263 74.9022 39.9995 76.1739 39.9995 77.5C39.9995 78.8261 40.5263 80.0979 41.464 81.0356C42.4017 81.9732 43.6734 82.5 44.9995 82.5Z"
        fill="#00414D" />
    <path fill-rule="evenodd" clip-rule="evenodd"
        d="M33.835 56L42.5 62.5H47.5L56.165 56C71.4025 58.44 90 65.225 90 75.0001V90.0001H0V75.0001C0 65.225 18.5975 58.44 33.835 56ZM49.1675 67.5L57.4425 61.2925C59.95 61.7525 62.5025 62.33 65 63.0075V85.0001H70V64.5375C71.75 65.1375 73.4275 65.79 75 66.4925V85.0001H15V66.4925C16.5725 65.7925 18.25 65.1375 20 64.5375V85.0001H25V63.0075C27.4975 62.33 30.05 61.7525 32.5575 61.2925L40.8325 67.5H49.1675ZM83.2625 71.725C84.6725 73.185 85 74.2626 85 75.0001V85.0001H80V69.14C81.35 70.005 82.44 70.875 83.2625 71.7276M6.7375 71.7276C7.5625 70.8776 8.6525 70.0075 10 69.1425V85.0001H5V75.0001C5 74.2626 5.325 73.185 6.7375 71.725"
        fill="#00414D" />
    <path
        d="M6.288 124.24C4.60267 124.24 3.20533 123.685 2.096 122.576C0.997333 121.456 0.448 120.064 0.448 118.4C0.448 116.736 0.997333 115.349 2.096 114.24C3.20533 113.12 4.60267 112.56 6.288 112.56C7.30133 112.56 8.24 112.8 9.104 113.28C9.968 113.76 10.6453 114.405 11.136 115.216L8.656 116.64C8.44267 116.245 8.12267 115.936 7.696 115.712C7.28 115.477 6.81067 115.36 6.288 115.36C5.392 115.36 4.66667 115.643 4.112 116.208C3.568 116.763 3.296 117.493 3.296 118.4C3.296 119.307 3.568 120.043 4.112 120.608C4.66667 121.163 5.392 121.44 6.288 121.44C6.81067 121.44 7.28 121.328 7.696 121.104C8.12267 120.869 8.44267 120.549 8.656 120.144L11.136 121.584C10.6453 122.405 9.968 123.056 9.104 123.536C8.25067 124.005 7.312 124.24 6.288 124.24ZM19.2333 118.208C20.1719 118.763 20.6413 119.6 20.6413 120.72C20.6413 121.712 20.2999 122.507 19.6173 123.104C18.9346 123.701 18.0226 124 16.8813 124H12.1613V112.8H16.5773C17.6973 112.8 18.5933 113.088 19.2653 113.664C19.9373 114.229 20.2733 115.003 20.2733 115.984C20.2733 116.923 19.9266 117.664 19.2333 118.208ZM16.4973 115.36H15.0253V117.12H16.4973C16.7533 117.12 16.9666 117.045 17.1373 116.896C17.3186 116.736 17.4093 116.517 17.4093 116.24C17.4093 115.973 17.3239 115.76 17.1533 115.6C16.9826 115.44 16.7639 115.36 16.4973 115.36ZM16.8013 121.44C17.0893 121.44 17.3239 121.355 17.5053 121.184C17.6866 121.003 17.7773 120.773 17.7773 120.496C17.7773 120.208 17.6866 119.979 17.5053 119.808C17.3239 119.637 17.0893 119.552 16.8013 119.552H15.0253V121.44H16.8013ZM31.3863 122.56C30.2556 123.68 28.8689 124.24 27.2263 124.24C25.5836 124.24 24.1916 123.68 23.0503 122.56C21.9196 121.429 21.3543 120.043 21.3543 118.4C21.3543 116.757 21.9196 115.376 23.0503 114.256C24.1916 113.125 25.5836 112.56 27.2263 112.56C28.8689 112.56 30.2556 113.125 31.3863 114.256C32.5276 115.376 33.0983 116.757 33.0983 118.4C33.0983 120.043 32.5276 121.429 31.3863 122.56ZM25.0663 120.592C25.6423 121.157 26.3623 121.44 27.2263 121.44C28.0903 121.44 28.8103 121.157 29.3863 120.592C29.9623 120.016 30.2503 119.285 30.2503 118.4C30.2503 117.515 29.9623 116.789 29.3863 116.224C28.8103 115.648 28.0903 115.36 27.2263 115.36C26.3623 115.36 25.6423 115.648 25.0663 116.224C24.4903 116.789 24.2023 117.515 24.2023 118.4C24.2023 119.285 24.4903 120.016 25.0663 120.592ZM40.6029 124V118.368L36.6509 124H34.4269V112.8H37.2909V118.432L41.2429 112.8H43.4509V124H40.6029ZM12.304 132.8V144H9.456V137.968L6.736 142.464H6.448L3.744 137.984V144H0.88V132.8H3.744L6.592 137.584L9.456 132.8H12.304ZM23.6831 142.56C22.5525 143.68 21.1658 144.24 19.5231 144.24C17.8805 144.24 16.4885 143.68 15.3471 142.56C14.2165 141.429 13.6511 140.043 13.6511 138.4C13.6511 136.757 14.2165 135.376 15.3471 134.256C16.4885 133.125 17.8805 132.56 19.5231 132.56C21.1658 132.56 22.5525 133.125 23.6831 134.256C24.8245 135.376 25.3951 136.757 25.3951 138.4C25.3951 140.043 24.8245 141.429 23.6831 142.56ZM17.3631 140.592C17.9391 141.157 18.6591 141.44 19.5231 141.44C20.3871 141.44 21.1071 141.157 21.6831 140.592C22.2591 140.016 22.5471 139.285 22.5471 138.4C22.5471 137.515 22.2591 136.789 21.6831 136.224C21.1071 135.648 20.3871 135.36 19.5231 135.36C18.6591 135.36 17.9391 135.648 17.3631 136.224C16.7871 136.789 16.4991 137.515 16.4991 138.4C16.4991 139.285 16.7871 140.016 17.3631 140.592ZM32.7398 132.8H35.5878V144H32.7398V139.696H29.5878V144H26.7238V132.8H29.5878V136.944H32.7398V132.8ZM45.0444 132.8V135.568H42.2764V144H39.4124V135.568H36.6444V132.8H45.0444ZM52.1183 144L51.6383 142.384H47.9103L47.4303 144H44.3262L48.0223 132.8H51.5103L55.2063 144H52.1183ZM48.6463 139.92H50.9023L49.7663 136.112L48.6463 139.92ZM69.8766 144H66.7086L63.9886 139.12V144H61.1246V139.12L58.3886 144H55.2206L58.5966 138.336L55.3806 132.8H58.5486L61.1246 137.648V132.8H63.9886V137.648L66.5486 132.8H69.7166L66.5166 138.336L69.8766 144ZM76.8648 132.8H79.7128V144H76.8648V139.696H73.7128V144H70.8488V132.8H73.7128V136.944H76.8648V132.8ZM87.6654 144V138.368L83.7134 144H81.4894V132.8H84.3534V138.432L88.3054 132.8H90.5134V144H87.6654ZM101.566 144H98.3663L95.1503 138.992V144H92.2863V132.8H95.1503V137.504L98.2063 132.8H101.406L97.8543 138.24L101.566 144ZM108.556 144V138.368L104.604 144H102.38V132.8H105.244V138.432L109.196 132.8H111.404V144H108.556Z"
        fill="black" />
</svg>