<svg width="94" height="130" viewBox="0 0 94 130" fill="none" xmlns="http://www.w3.org/2000/svg">
    <path
        d="M56.6304 60.0946C56.6304 61.1608 56.1563 62.1833 55.3124 62.9373C54.4684 63.6912 53.3238 64.1147 52.1304 64.1147C50.9369 64.1147 49.7923 63.6912 48.9484 62.9373C48.1045 62.1833 47.6304 61.1608 47.6304 60.0946C47.6304 59.0284 48.1045 58.0059 48.9484 57.2519C49.7923 56.498 50.9369 56.0745 52.1304 56.0745C53.3238 56.0745 54.4684 56.498 55.3124 57.2519C56.1563 58.0059 56.6304 59.0284 56.6304 60.0946ZM55.5054 26.9287C55.5054 26.129 55.1498 25.3621 54.5169 24.7967C53.8839 24.2312 53.0255 23.9136 52.1304 23.9136C51.2353 23.9136 50.3768 24.2312 49.7439 24.7967C49.111 25.3621 48.7554 26.129 48.7554 26.9287V45.0192C48.7554 45.8188 49.111 46.5857 49.7439 47.1512C50.3768 47.7166 51.2353 48.0343 52.1304 48.0343C53.0255 48.0343 53.8839 47.7166 54.5169 47.1512C55.1498 46.5857 55.5054 45.8188 55.5054 45.0192V26.9287Z"
        fill="#00414D" />
    <path
        d="M46.57 0.343309C48.1495 -0.114437 49.8505 -0.114437 51.43 0.343309L88.555 11.0971C90.137 11.5556 91.516 12.4498 92.4941 13.6515C93.4723 14.8532 93.9994 16.3007 94 17.7866V37.9836C94 62.8681 77.035 81.019 51.6955 89.5617C49.958 90.1461 48.042 90.1461 46.3045 89.5617C20.9695 81.0149 4 62.8681 4 37.9836V17.7866C4 14.7313 6.205 12.0378 9.445 11.0971L46.57 0.343309ZM49.3465 6.07599C49.1213 6.01085 48.8787 6.01085 48.6535 6.07599L11.5285 16.8378C11.3029 16.9031 11.1061 17.0303 10.9663 17.2015C10.8265 17.3726 10.7508 17.5788 10.75 17.7906V37.9836C10.75 59.9375 25.51 76.1064 48.685 83.9175C48.8881 83.9853 49.1119 83.9853 49.315 83.9175C72.49 76.1064 87.25 59.9335 87.25 37.9836V17.7866C87.2492 17.5747 87.1735 17.3685 87.0337 17.1974C86.8939 17.0263 86.6971 16.8991 86.4715 16.8338L49.3465 6.07599Z"
        fill="#00414D" />
    <path
        d="M6.68508 112.8V115.568H2.92508V124H0.0610761V112.8H6.68508ZM13.2056 124L12.7256 122.384H8.99758L8.51758 124H5.41358L9.10958 112.8H12.5976L16.2936 124H13.2056ZM9.73358 119.92H11.9896L10.8536 116.112L9.73358 119.92ZM21.46 112.8C22.5906 112.8 23.54 113.168 24.308 113.904C25.076 114.64 25.46 115.579 25.46 116.72C25.46 117.861 25.076 118.8 24.308 119.536C23.54 120.272 22.5906 120.64 21.46 120.64H19.972V124H17.108V112.8H21.46ZM21.46 117.92C21.78 117.92 22.0466 117.808 22.26 117.584C22.484 117.36 22.596 117.072 22.596 116.72C22.596 116.368 22.484 116.085 22.26 115.872C22.0466 115.648 21.78 115.536 21.46 115.536H19.972V117.92H21.46ZM32.3618 124L31.8818 122.384H28.1538L27.6738 124H24.5698L28.2658 112.8H31.7538L35.4498 124H32.3618ZM28.8898 119.92H31.1458L30.0098 116.112L28.8898 119.92ZM42.2802 112.8H45.1282V124H42.2802V119.696H39.1282V124H36.2642V112.8H39.1282V116.944H42.2802V112.8ZM54.5848 112.8V115.568H51.8168V124H48.9528V115.568H46.1848V112.8H54.5848ZM61.7996 124V118.368L57.8476 124H55.6236V112.8H58.4876V118.432L62.4396 112.8H64.6476V124H61.7996ZM72.5964 124V118.368L68.6444 124H66.4204V112.8H69.2844V118.432L73.2364 112.8H75.4444V124H72.5964Z"
        fill="black" />
</svg>