<svg width="140" height="170" viewBox="0 0 140 170" fill="none" xmlns="http://www.w3.org/2000/svg">
    <path fill-rule="evenodd" clip-rule="evenodd"
        d="M71.4705 25.7143C71.4705 39.9163 59.6196 51.4285 44.9999 51.4285C30.3802 51.4285 18.5293 39.9163 18.5293 25.7143C18.5293 11.5123 30.3802 0 44.9999 0C59.6196 0 71.4705 11.5123 71.4705 25.7143ZM66.1764 25.7143C66.1764 31.1701 63.9453 36.4026 59.9739 40.2605C56.0026 44.1183 50.6162 46.2857 44.9999 46.2857C39.3835 46.2857 33.9972 44.1183 30.0259 40.2605C26.0545 36.4026 23.8234 31.1701 23.8234 25.7143C23.8234 20.2584 26.0545 15.026 30.0259 11.1681C33.9972 7.31019 39.3835 5.14285 44.9999 5.14285C50.6162 5.14285 56.0026 7.31019 59.9739 11.1681C63.9453 15.026 66.1764 20.2584 66.1764 25.7143Z"
        fill="#00414D" />
    <path
        d="M62.2059 56.5715C61.9243 56.5093 61.6292 56.5421 61.3694 56.6646C61.1096 56.787 60.9004 56.9918 60.7765 57.2452L50.2941 86.3281V77.1429L48.7721 66.8032C49.2579 66.7038 49.7053 66.4736 50.0629 66.1389C50.4205 65.8043 50.674 65.3786 50.7944 64.9107L52.1179 59.7678C52.2157 59.3889 52.2232 58.9933 52.14 58.6111C52.0569 58.2289 51.8851 57.8701 51.6379 57.562C51.3906 57.2539 51.0744 57.0046 50.7131 56.8329C50.3518 56.6613 49.9551 56.5719 49.5529 56.5715H40.4524C40.0503 56.5716 39.6535 56.6607 39.2921 56.832C38.9308 57.0033 38.6144 57.2523 38.3669 57.5602C38.1194 57.868 37.9473 58.2266 37.8638 58.6086C37.7803 58.9907 37.7874 59.3863 37.8847 59.7652L39.2082 64.9081C39.3282 65.3765 39.5815 65.8027 39.9392 66.1379C40.2968 66.473 40.7444 66.7036 41.2306 66.8032L39.7059 77.1429V84.0755L29.2235 57.2452C29.0996 56.9918 28.8904 56.787 28.6306 56.6646C28.3708 56.5421 28.0757 56.5093 27.7941 56.5715C26.7822 56.8088 25.7692 57.042 24.7553 57.2709C18.7676 58.6338 11.3665 60.3155 7.43294 62.8252C2.76618 65.8004 0 69.3078 0 73.2858V90.0001H90V73.2858C90 69.3078 87.2338 65.8029 82.5671 62.8252C78.6335 60.3155 71.2324 58.6338 65.2447 57.2709C64.1779 57.0292 63.1535 56.7978 62.2059 56.5715Z"
        fill="#00414D" />
    <path
        d="M10.48 142.56C9.34933 143.68 7.96267 144.24 6.32 144.24C4.67733 144.24 3.28533 143.68 2.144 142.56C1.01333 141.429 0.448 140.043 0.448 138.4C0.448 136.757 1.01333 135.376 2.144 134.256C3.28533 133.125 4.67733 132.56 6.32 132.56C7.96267 132.56 9.34933 133.125 10.48 134.256C11.6213 135.376 12.192 136.757 12.192 138.4C12.192 140.043 11.6213 141.429 10.48 142.56ZM4.16 140.592C4.736 141.157 5.456 141.44 6.32 141.44C7.184 141.44 7.904 141.157 8.48 140.592C9.056 140.016 9.344 139.285 9.344 138.4C9.344 137.515 9.056 136.789 8.48 136.224C7.904 135.648 7.184 135.36 6.32 135.36C5.456 135.36 4.736 135.648 4.16 136.224C3.584 136.789 3.296 137.515 3.296 138.4C3.296 139.285 3.584 140.016 4.16 140.592ZM24.3366 135.312C25.2113 136.112 25.6486 137.141 25.6486 138.4C25.6486 139.659 25.2113 140.693 24.3366 141.504C23.462 142.304 22.246 142.8 20.6886 142.992V144.32H17.9366V142.992C16.3793 142.8 15.158 142.304 14.2726 141.504C13.398 140.693 12.9606 139.659 12.9606 138.4C12.9606 137.141 13.398 136.112 14.2726 135.312C15.158 134.501 16.3793 134 17.9366 133.808V132.48H20.6886V133.808C22.246 134 23.462 134.501 24.3366 135.312ZM15.8246 138.4C15.8246 139.509 16.5286 140.165 17.9366 140.368V136.384C17.2113 136.491 16.678 136.709 16.3366 137.04C15.9953 137.371 15.8246 137.824 15.8246 138.4ZM20.6886 140.368C21.414 140.261 21.9473 140.048 22.2886 139.728C22.63 139.397 22.8006 138.955 22.8006 138.4C22.8006 137.824 22.63 137.371 22.2886 137.04C21.9473 136.709 21.414 136.491 20.6886 136.384V140.368ZM33.0248 144V138.368L29.0728 144H26.8488V132.8H29.7128V138.432L33.6648 132.8H35.8728V144H33.0248ZM46.4296 141.232H47.7096V146.144H44.8456V144H37.6456V132.8H40.5896V141.232H43.5016V132.8H46.4296V141.232ZM55.056 144V138.368L51.104 144H48.88V132.8H51.744V138.432L55.696 132.8H57.904V144H55.056ZM66.5089 144L66.0289 142.384H62.3009L61.8209 144H58.7169L62.4129 132.8H65.9009L69.5969 144H66.5089ZM63.0369 139.92H65.2929L64.1569 136.112L63.0369 139.92ZM69.8769 144V141.328C70.4742 141.403 70.9062 141.317 71.1729 141.072C71.4502 140.816 71.5889 140.293 71.5889 139.504V132.8H79.5569V144H76.6929V135.568H74.4529V139.632C74.4529 140.549 74.3195 141.328 74.0529 141.968C73.7969 142.597 73.4395 143.061 72.9809 143.36C72.5329 143.659 72.0529 143.856 71.5409 143.952C71.0289 144.048 70.4742 144.064 69.8769 144ZM85.6695 136.16C86.8002 136.16 87.7495 136.528 88.5175 137.264C89.2855 138 89.6695 138.939 89.6695 140.08C89.6695 141.221 89.2855 142.16 88.5175 142.896C87.7495 143.632 86.8002 144 85.6695 144H81.3175V132.8H84.1815V136.16H85.6695ZM85.6695 141.264C85.9895 141.264 86.2562 141.157 86.4695 140.944C86.6935 140.72 86.8055 140.432 86.8055 140.08C86.8055 139.728 86.6935 139.44 86.4695 139.216C86.2562 138.992 85.9895 138.88 85.6695 138.88H84.1815V141.264H85.6695ZM96.8023 132.8H99.6503V144H96.8023V139.696H93.6503V144H90.7863V132.8H93.6503V136.944H96.8023V132.8ZM101.427 144V132.8H104.291V136.16H105.779C106.91 136.16 107.859 136.533 108.627 137.28C109.395 138.016 109.779 138.949 109.779 140.08C109.779 141.221 109.395 142.16 108.627 142.896C107.859 143.632 106.91 144 105.779 144H101.427ZM110.707 144V132.8H113.555V144H110.707ZM104.291 141.28H105.779C106.099 141.28 106.366 141.168 106.579 140.944C106.803 140.72 106.915 140.432 106.915 140.08C106.915 139.728 106.803 139.445 106.579 139.232C106.366 139.008 106.099 138.896 105.779 138.896H104.291V141.28ZM118.197 141.312H122.533V144H115.333V132.8H122.453V135.472H118.197V137.024H122.053V139.664H118.197V141.312ZM9.904 161.232H11.104V166.144H8.256V164H3.024V166.144H0.16V161.232H1.344C1.856 160.411 2.112 159.227 2.112 157.68V152.8H9.904V161.232ZM4.32 161.232H7.056V155.456H4.96V157.712C4.96 159.205 4.74667 160.379 4.32 161.232ZM18.4466 164V158.368L14.4946 164H12.2706V152.8H15.1346V158.432L19.0866 152.8H21.2946V164H18.4466ZM30.7475 152.8V155.568H27.9795V164H25.1155V155.568H22.3475V152.8H30.7475ZM36.1383 152.8C37.2689 152.8 38.2183 153.168 38.9862 153.904C39.7543 154.64 40.1383 155.579 40.1383 156.72C40.1383 157.861 39.7543 158.8 38.9862 159.536C38.2183 160.272 37.2689 160.64 36.1383 160.64H34.6503V164H31.7863V152.8H36.1383ZM36.1383 157.92C36.4583 157.92 36.7249 157.808 36.9383 157.584C37.1623 157.36 37.2743 157.072 37.2743 156.72C37.2743 156.368 37.1623 156.085 36.9383 155.872C36.7249 155.648 36.4583 155.536 36.1383 155.536H34.6503V157.92H36.1383ZM47.431 164V158.368L43.479 164H41.255V152.8H44.119V158.432L48.071 152.8H50.279V164H47.431ZM56.6759 156.928C57.8172 156.928 58.7292 157.248 59.4119 157.888C60.0945 158.528 60.4359 159.381 60.4359 160.448C60.4359 161.515 60.0945 162.373 59.4119 163.024C58.7292 163.675 57.8172 164 56.6759 164H52.0519V152.8H59.4759V155.568H54.9159V156.928H56.6759ZM56.5639 161.376C56.8732 161.376 57.1185 161.301 57.2999 161.152C57.4919 160.992 57.5879 160.757 57.5879 160.448C57.5879 160.139 57.4919 159.904 57.2999 159.744C57.1185 159.584 56.8732 159.504 56.5639 159.504H54.9159V161.376H56.5639ZM65.8726 156.16C67.0033 156.16 67.9526 156.528 68.7206 157.264C69.4886 158 69.8726 158.939 69.8726 160.08C69.8726 161.221 69.4886 162.16 68.7206 162.896C67.9526 163.632 67.0033 164 65.8726 164H61.5206V152.8H64.3846V156.16H65.8726ZM65.8726 161.264C66.1926 161.264 66.4593 161.157 66.6726 160.944C66.8966 160.72 67.0086 160.432 67.0086 160.08C67.0086 159.728 66.8966 159.44 66.6726 159.216C66.4593 158.992 66.1926 158.88 65.8726 158.88H64.3846V161.264H65.8726ZM80.8774 152.56C82.52 152.56 83.9067 153.125 85.0374 154.256C86.1787 155.376 86.7494 156.757 86.7494 158.4C86.7494 160.032 86.1787 161.413 85.0374 162.544C83.896 163.675 82.5094 164.24 80.8774 164.24C79.4694 164.24 78.2427 163.808 77.1974 162.944C76.152 162.08 75.496 160.971 75.2294 159.616H73.8534V164H70.9894V152.8H73.8534V156.864H75.3094C75.6294 155.595 76.296 154.56 77.3094 153.76C78.3334 152.96 79.5227 152.56 80.8774 152.56ZM78.7174 160.592C79.2934 161.157 80.0134 161.44 80.8774 161.44C81.7414 161.44 82.4614 161.157 83.0374 160.592C83.6134 160.016 83.9014 159.285 83.9014 158.4C83.9014 157.515 83.6134 156.789 83.0374 156.224C82.4614 155.648 81.7414 155.36 80.8774 155.36C80.0134 155.36 79.2934 155.643 78.7174 156.208C78.1414 156.773 77.8534 157.504 77.8534 158.4C77.8534 159.285 78.1414 160.016 78.7174 160.592ZM95.2006 152.8V155.568H92.4326V164H89.5686V155.568H86.8006V152.8H95.2006ZM105.277 162.56C104.146 163.68 102.76 164.24 101.117 164.24C99.4742 164.24 98.0822 163.68 96.9409 162.56C95.8102 161.429 95.2449 160.043 95.2449 158.4C95.2449 156.757 95.8102 155.376 96.9409 154.256C98.0822 153.125 99.4742 152.56 101.117 152.56C102.76 152.56 104.146 153.125 105.277 154.256C106.418 155.376 106.989 156.757 106.989 158.4C106.989 160.043 106.418 161.429 105.277 162.56ZM98.9569 160.592C99.5329 161.157 100.253 161.44 101.117 161.44C101.981 161.44 102.701 161.157 103.277 160.592C103.853 160.016 104.141 159.285 104.141 158.4C104.141 157.515 103.853 156.789 103.277 156.224C102.701 155.648 101.981 155.36 101.117 155.36C100.253 155.36 99.5329 155.648 98.9569 156.224C98.3809 156.789 98.0929 157.515 98.0929 158.4C98.0929 159.285 98.3809 160.016 98.9569 160.592ZM112.67 152.8C113.8 152.8 114.75 153.168 115.517 153.904C116.286 154.64 116.67 155.579 116.67 156.72C116.67 157.861 116.286 158.8 115.517 159.536C114.75 160.272 113.8 160.64 112.67 160.64H111.182V164H108.318V152.8H112.67ZM112.67 157.92C112.99 157.92 113.256 157.808 113.47 157.584C113.694 157.36 113.806 157.072 113.806 156.72C113.806 156.368 113.694 156.085 113.47 155.872C113.256 155.648 112.99 155.536 112.67 155.536H111.182V157.92H112.67ZM117.786 164V152.8H120.65V156.16H122.138C123.269 156.16 124.218 156.533 124.986 157.28C125.754 158.016 126.138 158.949 126.138 160.08C126.138 161.221 125.754 162.16 124.986 162.896C124.218 163.632 123.269 164 122.138 164H117.786ZM127.066 164V152.8H129.914V164H127.066ZM120.65 161.28H122.138C122.458 161.28 122.725 161.168 122.938 160.944C123.162 160.72 123.274 160.432 123.274 160.08C123.274 159.728 123.162 159.445 122.938 159.232C122.725 159.008 122.458 158.896 122.138 158.896H120.65V161.28Z"
        fill="black" />
</svg>