<svg width="131" height="150" viewBox="0 0 131 150" fill="none" xmlns="http://www.w3.org/2000/svg">
    <path
        d="M102 45L92.0182 33.0429L93.4091 17.2286L78.6409 13.7143L70.9091 0L57 6.25714L43.0909 0L35.3591 13.6714L20.5909 17.1429L21.9818 33L12 45L21.9818 56.9571L20.5909 72.8143L35.3591 76.3286L43.0909 90L57 83.7L70.9091 89.9571L78.6409 76.2857L93.4091 72.7714L92.0182 56.9571L102 45ZM46.2818 62.1857L36.5455 51.9C36.1662 51.5035 35.8653 51.0326 35.66 50.5141C35.4548 49.9956 35.3491 49.4399 35.3491 48.8786C35.3491 48.3173 35.4548 47.7615 35.66 47.243C35.8653 46.7246 36.1662 46.2536 36.5455 45.8571L36.8318 45.5571C38.4273 43.8857 41.0455 43.8857 42.6409 45.5571L49.2273 52.5L70.2955 30.3857C71.8909 28.7143 74.5091 28.7143 76.1045 30.3857L76.3909 30.6857C77.9864 32.3571 77.9864 35.0571 76.3909 36.7286L52.1727 62.1857C50.4955 63.8571 47.9182 63.8571 46.2818 62.1857Z"
        fill="#00414D" />
    <path
        d="M7.78141 138.208C8.72007 138.763 9.18941 139.6 9.18941 140.72C9.18941 141.712 8.84807 142.507 8.16541 143.104C7.48274 143.701 6.57074 144 5.42941 144H0.709407V132.8H5.12541C6.24541 132.8 7.14141 133.088 7.81341 133.664C8.48541 134.229 8.82141 135.003 8.82141 135.984C8.82141 136.923 8.47474 137.664 7.78141 138.208ZM5.04541 135.36H3.57341V137.12H5.04541C5.30141 137.12 5.51474 137.045 5.68541 136.896C5.86674 136.736 5.95741 136.517 5.95741 136.24C5.95741 135.973 5.87207 135.76 5.70141 135.6C5.53074 135.44 5.31207 135.36 5.04541 135.36ZM5.34941 141.44C5.63741 141.44 5.87207 141.355 6.05341 141.184C6.23474 141.003 6.32541 140.773 6.32541 140.496C6.32541 140.208 6.23474 139.979 6.05341 139.808C5.87207 139.637 5.63741 139.552 5.34941 139.552H3.57341V141.44H5.34941ZM15.7424 144.24C14.0571 144.24 12.6597 143.685 11.5504 142.576C10.4517 141.456 9.90241 140.064 9.90241 138.4C9.90241 136.736 10.4517 135.349 11.5504 134.24C12.6597 133.12 14.0571 132.56 15.7424 132.56C16.7557 132.56 17.6944 132.8 18.5584 133.28C19.4224 133.76 20.0997 134.405 20.5904 135.216L18.1104 136.64C17.8971 136.245 17.5771 135.936 17.1504 135.712C16.7344 135.477 16.2651 135.36 15.7424 135.36C14.8464 135.36 14.1211 135.643 13.5664 136.208C13.0224 136.763 12.7504 137.493 12.7504 138.4C12.7504 139.307 13.0224 140.043 13.5664 140.608C14.1211 141.163 14.8464 141.44 15.7424 141.44C16.2651 141.44 16.7344 141.328 17.1504 141.104C17.5771 140.869 17.8971 140.549 18.1104 140.144L20.5904 141.584C20.0997 142.405 19.4224 143.056 18.5584 143.536C17.7051 144.005 16.7664 144.24 15.7424 144.24ZM24.4797 141.312H28.8157V144H21.6157V132.8H28.7357V135.472H24.4797V137.024H28.3357V139.664H24.4797V141.312ZM40.8752 138.208C41.8138 138.763 42.2832 139.6 42.2832 140.72C42.2832 141.712 41.9418 142.507 41.2592 143.104C40.5765 143.701 39.6645 144 38.5232 144H33.8032V132.8H38.2192C39.3392 132.8 40.2352 133.088 40.9072 133.664C41.5792 134.229 41.9152 135.003 41.9152 135.984C41.9152 136.923 41.5685 137.664 40.8752 138.208ZM38.1392 135.36H36.6672V137.12H38.1392C38.3952 137.12 38.6085 137.045 38.7792 136.896C38.9605 136.736 39.0512 136.517 39.0512 136.24C39.0512 135.973 38.9658 135.76 38.7952 135.6C38.6245 135.44 38.4058 135.36 38.1392 135.36ZM38.4432 141.44C38.7312 141.44 38.9658 141.355 39.1472 141.184C39.3285 141.003 39.4192 140.773 39.4192 140.496C39.4192 140.208 39.3285 139.979 39.1472 139.808C38.9658 139.637 38.7312 139.552 38.4432 139.552H36.6672V141.44H38.4432ZM52.7082 144H49.5082L46.2922 138.992V144H43.4282V132.8H46.2922V137.504L49.3482 132.8H52.5482L48.9962 138.24L52.7082 144ZM52.9407 144V141.328C53.538 141.403 53.97 141.317 54.2367 141.072C54.514 140.816 54.6527 140.293 54.6527 139.504V132.8H62.6207V144H59.7567V135.568H57.5167V139.632C57.5167 140.549 57.3833 141.328 57.1167 141.968C56.8607 142.597 56.5033 143.061 56.0447 143.36C55.5967 143.659 55.1167 143.856 54.6047 143.952C54.0927 144.048 53.538 144.064 52.9407 144ZM74.2693 132.56C75.9119 132.56 77.2986 133.125 78.4293 134.256C79.5706 135.376 80.1413 136.757 80.1413 138.4C80.1413 140.032 79.5706 141.413 78.4293 142.544C77.2879 143.675 75.9013 144.24 74.2693 144.24C72.8613 144.24 71.6346 143.808 70.5893 142.944C69.5439 142.08 68.8879 140.971 68.6213 139.616H67.2453V144H64.3813V132.8H67.2453V136.864H68.7013C69.0213 135.595 69.6879 134.56 70.7013 133.76C71.7253 132.96 72.9146 132.56 74.2693 132.56ZM72.1093 140.592C72.6853 141.157 73.4053 141.44 74.2693 141.44C75.1333 141.44 75.8533 141.157 76.4293 140.592C77.0053 140.016 77.2933 139.285 77.2933 138.4C77.2933 137.515 77.0053 136.789 76.4293 136.224C75.8533 135.648 75.1333 135.36 74.2693 135.36C73.4053 135.36 72.6853 135.643 72.1093 136.208C71.5333 136.773 71.2453 137.504 71.2453 138.4C71.2453 139.285 71.5333 140.016 72.1093 140.592ZM87.0468 132.8H89.8948V144H87.0468V140.288C86.4388 140.491 85.8041 140.592 85.1428 140.592C83.9374 140.592 82.9668 140.256 82.2308 139.584C81.4948 138.912 81.1268 137.984 81.1268 136.8V132.8H83.9748V136.496C83.9748 136.923 84.1028 137.253 84.3588 137.488C84.6148 137.723 84.9454 137.84 85.3508 137.84C85.9374 137.84 86.5028 137.744 87.0468 137.552V132.8ZM94.5422 141.312H98.8782V144H91.6782V132.8H98.7982V135.472H94.5422V137.024H98.3982V139.664H94.5422V141.312ZM106.257 132.8H109.105V144H106.257V139.696H103.105V144H100.241V132.8H103.105V136.944H106.257V132.8ZM120.481 142.56C119.351 143.68 117.964 144.24 116.321 144.24C114.679 144.24 113.287 143.68 112.145 142.56C111.015 141.429 110.449 140.043 110.449 138.4C110.449 136.757 111.015 135.376 112.145 134.256C113.287 133.125 114.679 132.56 116.321 132.56C117.964 132.56 119.351 133.125 120.481 134.256C121.623 135.376 122.193 136.757 122.193 138.4C122.193 140.043 121.623 141.429 120.481 142.56ZM114.161 140.592C114.737 141.157 115.457 141.44 116.321 141.44C117.185 141.44 117.905 141.157 118.481 140.592C119.057 140.016 119.345 139.285 119.345 138.4C119.345 137.515 119.057 136.789 118.481 136.224C117.905 135.648 117.185 135.36 116.321 135.36C115.457 135.36 114.737 135.648 114.161 136.224C113.585 136.789 113.297 137.515 113.297 138.4C113.297 139.285 113.585 140.016 114.161 140.592Z"
        fill="black" />
</svg>