<svg width="123" height="130" viewBox="0 0 123 130" fill="none" xmlns="http://www.w3.org/2000/svg">
    <path
        d="M53.003 0C28.1705 0 8 6.40158 8 14.2807C8.00038 18.5816 14.1356 22.4618 23.6303 25.08C20.3349 23.3685 18.4185 21.3888 18.4185 19.227C18.4185 13.0556 33.8947 7.98402 53.003 7.98402C72.1113 7.98402 87.6943 13.0552 87.6943 19.227C87.6943 21.3773 85.7444 23.3742 82.4826 25.08C91.9184 22.4624 98 18.5662 98 14.2807C98 6.40158 77.8357 0 53.003 0ZM32.5222 15.4333V21.214H73.4664V15.4333H32.5222ZM33.3503 24.8034V65.1549H36.8879V24.8036L33.3503 24.8034ZM40.7571 24.8034C40.8892 36.6768 45.5514 43.3276 50.7546 44.745C45.4828 46.1809 40.7635 52.9856 40.7508 65.1545H65.0182C65.0057 52.9851 60.2945 46.1826 55.0264 44.745C60.2264 43.3262 64.88 36.6776 65.0125 24.8036L40.7571 24.8034ZM68.763 24.8034V65.1549H72.3008V24.8036L68.763 24.8034ZM23.6303 64.9206C14.1358 67.538 8.00019 71.4184 8.00019 75.7193C8.00019 83.5984 28.1705 90 53.0032 90C77.8359 90 98 83.5986 98 75.7197C98 71.4341 91.9184 67.538 82.4822 64.9204C85.7444 66.6261 87.6943 68.617 87.6943 70.7672C87.6943 76.939 72.1115 82.0166 53.003 82.0166C33.8945 82.0166 18.4185 76.9383 18.4185 70.7668C18.4185 68.605 20.3349 66.6319 23.6303 64.9206ZM32.5222 68.7441V74.5189H73.4664V68.7441H32.5222Z"
        fill="#00414D" />
    <path
        d="M9.02068 112.8V115.568H6.25268V124H3.38868V115.568H0.620678V112.8H9.02068ZM19.0969 122.56C17.9663 123.68 16.5796 124.24 14.9369 124.24C13.2943 124.24 11.9023 123.68 10.7609 122.56C9.63026 121.429 9.06493 120.043 9.06493 118.4C9.06493 116.757 9.63026 115.376 10.7609 114.256C11.9023 113.125 13.2943 112.56 14.9369 112.56C16.5796 112.56 17.9663 113.125 19.0969 114.256C20.2383 115.376 20.8089 116.757 20.8089 118.4C20.8089 120.043 20.2383 121.429 19.0969 122.56ZM12.7769 120.592C13.3529 121.157 14.0729 121.44 14.9369 121.44C15.8009 121.44 16.5209 121.157 17.0969 120.592C17.6729 120.016 17.9609 119.285 17.9609 118.4C17.9609 117.515 17.6729 116.789 17.0969 116.224C16.5209 115.648 15.8009 115.36 14.9369 115.36C14.0729 115.36 13.3529 115.648 12.7769 116.224C12.2009 116.789 11.9129 117.515 11.9129 118.4C11.9129 119.285 12.2009 120.016 12.7769 120.592ZM27.7093 112.8H30.5573V124H27.7093V120.288C27.1013 120.491 26.4666 120.592 25.8053 120.592C24.6 120.592 23.6293 120.256 22.8933 119.584C22.1573 118.912 21.7893 117.984 21.7893 116.8V112.8H24.6373V116.496C24.6373 116.923 24.7653 117.253 25.0213 117.488C25.2773 117.723 25.608 117.84 26.0133 117.84C26.6 117.84 27.1653 117.744 27.7093 117.552V112.8ZM38.3567 112.8H41.2047V124H38.3567V119.696H35.2047V124H32.3407V112.8H35.2047V116.944H38.3567V112.8ZM52.5813 122.56C51.4506 123.68 50.064 124.24 48.4213 124.24C46.7786 124.24 45.3866 123.68 44.2453 122.56C43.1146 121.429 42.5493 120.043 42.5493 118.4C42.5493 116.757 43.1146 115.376 44.2453 114.256C45.3866 113.125 46.7786 112.56 48.4213 112.56C50.064 112.56 51.4506 113.125 52.5813 114.256C53.7226 115.376 54.2933 116.757 54.2933 118.4C54.2933 120.043 53.7226 121.429 52.5813 122.56ZM46.2613 120.592C46.8373 121.157 47.5573 121.44 48.4213 121.44C49.2853 121.44 50.0053 121.157 50.5813 120.592C51.1573 120.016 51.4453 119.285 51.4453 118.4C51.4453 117.515 51.1573 116.789 50.5813 116.224C50.0053 115.648 49.2853 115.36 48.4213 115.36C47.5573 115.36 46.8373 115.648 46.2613 116.224C45.6853 116.789 45.3973 117.515 45.3973 118.4C45.3973 119.285 45.6853 120.016 46.2613 120.592ZM66.3189 118.208C67.2576 118.763 67.7269 119.6 67.7269 120.72C67.7269 121.712 67.3856 122.507 66.7029 123.104C66.0203 123.701 65.1083 124 63.9669 124H59.2469V112.8H63.6629C64.7829 112.8 65.6789 113.088 66.3509 113.664C67.0229 114.229 67.3589 115.003 67.3589 115.984C67.3589 116.923 67.0123 117.664 66.3189 118.208ZM63.5829 115.36H62.1109V117.12H63.5829C63.8389 117.12 64.0523 117.045 64.2229 116.896C64.4043 116.736 64.4949 116.517 64.4949 116.24C64.4949 115.973 64.4096 115.76 64.2389 115.6C64.0683 115.44 63.8496 115.36 63.5829 115.36ZM63.8869 121.44C64.1749 121.44 64.4096 121.355 64.5909 121.184C64.7723 121.003 64.8629 120.773 64.8629 120.496C64.8629 120.208 64.7723 119.979 64.5909 119.808C64.4096 119.637 64.1749 119.552 63.8869 119.552H62.1109V121.44H63.8869ZM77.9049 124.24C76.2196 124.24 74.8223 123.685 73.7129 122.576C72.6143 121.456 72.0649 120.064 72.0649 118.4C72.0649 116.736 72.6143 115.349 73.7129 114.24C74.8223 113.12 76.2196 112.56 77.9049 112.56C78.9183 112.56 79.8569 112.8 80.7209 113.28C81.5849 113.76 82.2623 114.405 82.7529 115.216L80.2729 116.64C80.0596 116.245 79.7396 115.936 79.3129 115.712C78.8969 115.477 78.4276 115.36 77.9049 115.36C77.0089 115.36 76.2836 115.643 75.7289 116.208C75.1849 116.763 74.9129 117.493 74.9129 118.4C74.9129 119.307 75.1849 120.043 75.7289 120.608C76.2836 121.163 77.0089 121.44 77.9049 121.44C78.4276 121.44 78.8969 121.328 79.3129 121.104C79.7396 120.869 80.0596 120.549 80.2729 120.144L82.7529 121.584C82.2623 122.405 81.5849 123.056 80.7209 123.536C79.8676 124.005 78.9289 124.24 77.9049 124.24ZM88.1302 112.8C89.2608 112.8 90.2102 113.168 90.9782 113.904C91.7462 114.64 92.1302 115.579 92.1302 116.72C92.1302 117.861 91.7462 118.8 90.9782 119.536C90.2102 120.272 89.2608 120.64 88.1302 120.64H86.6422V124H83.7782V112.8H88.1302ZM88.1302 117.92C88.4502 117.92 88.7168 117.808 88.9302 117.584C89.1542 117.36 89.2662 117.072 89.2662 116.72C89.2662 116.368 89.1542 116.085 88.9302 115.872C88.7168 115.648 88.4502 115.536 88.1302 115.536H86.6422V117.92H88.1302ZM102.831 122.56C101.701 123.68 100.314 124.24 98.6713 124.24C97.0286 124.24 95.6366 123.68 94.4953 122.56C93.3646 121.429 92.7993 120.043 92.7993 118.4C92.7993 116.757 93.3646 115.376 94.4953 114.256C95.6366 113.125 97.0286 112.56 98.6713 112.56C100.314 112.56 101.701 113.125 102.831 114.256C103.973 115.376 104.543 116.757 104.543 118.4C104.543 120.043 103.973 121.429 102.831 122.56ZM96.5113 120.592C97.0873 121.157 97.8073 121.44 98.6713 121.44C99.5353 121.44 100.255 121.157 100.831 120.592C101.407 120.016 101.695 119.285 101.695 118.4C101.695 117.515 101.407 116.789 100.831 116.224C100.255 115.648 99.5353 115.36 98.6713 115.36C97.8073 115.36 97.0873 115.648 96.5113 116.224C95.9353 116.789 95.6473 117.515 95.6473 118.4C95.6473 119.285 95.9353 120.016 96.5113 120.592ZM115.152 124H111.952L108.736 118.992V124H105.872V112.8H108.736V117.504L111.792 112.8H114.992L111.44 118.24L115.152 124Z"
        fill="black" />
</svg>